<svg xmlns="http://www.w3.org/2000/svg" width="260" height="34.026" viewBox="0 0 260 34.026">
  <g id="WISEHOSTING_VECTOR" transform="translate(0 0.5)">
    <g id="Group_1" data-name="Group 1" transform="translate(63.5 5.267)">
      <path id="Path_1" data-name="Path 1" d="M1228.74,245.05h4.683l3.327,10.907,4.642-10.827h.081l4.629,10.814,3.314-10.894h4.7l-7.043,21.9h-.255l-5.434-11.753-5.353,11.753h-.242Z" transform="translate(-1228.74 -244.593)" fill="#00b8ff"/>
      <path id="Path_2" data-name="Path 2" d="M1611.37,245.05h4.347v21.627h-4.347Z" transform="translate(-1583.839 -244.593)" fill="#00b8ff"/>
      <path id="Path_3" data-name="Path 3" d="M1708.33,257.054l3.475-2.442a4.566,4.566,0,0,0,4.2,2.227c2.039,0,3.408-.832,3.408-1.986,0-1.583-2.589-2.831-4.857-3.958-2.428-1.207-5.1-2.536-5.1-5.984,0-3.743,3.167-6.212,7.138-6.212,2.952,0,5.394,1.221,6.373,3.837l-3.206,2.241a3.334,3.334,0,0,0-3.1-1.811c-1.623,0-2.831.939-2.831,2.053,0,1.288,1.637,1.73,4.119,2.9,3.582,1.69,5.836,3.515,5.836,6.843,0,3.944-3.22,6.453-7.849,6.453C1712.4,261.213,1709.779,259.737,1708.33,257.054Z" transform="translate(-1673.823 -238.7)" fill="#00b8ff"/>
      <path id="Path_4" data-name="Path 4" d="M1964.037,249.33v4.226h7.459v4.334h-7.459v4.467h8.694v4.32H1959.69V245.05h13.041v4.28Z" transform="translate(-1907.097 -244.593)" fill="#00b8ff"/>
      <path id="Path_5" data-name="Path 5" d="M2201.745,245.05v21.627h-4.334V258.01h-7.768v8.667h-4.334V245.05h4.334V253.7h7.768V245.05Z" transform="translate(-2116.483 -244.593)" fill="#fff"/>
      <path id="Path_6" data-name="Path 6" d="M2452.89,250.183a11.249,11.249,0,1,1,11.229,11.2A11.291,11.291,0,0,1,2452.89,250.183Zm18.1-.027a6.856,6.856,0,1,0-6.869,6.829A6.883,6.883,0,0,0,2470.989,250.156Z" transform="translate(-2364.81 -238.886)" fill="#fff"/>
      <path id="Path_7" data-name="Path 7" d="M2789.09,257.054l3.475-2.442a4.566,4.566,0,0,0,4.2,2.227c2.04,0,3.408-.832,3.408-1.986,0-1.583-2.59-2.831-4.857-3.958-2.429-1.207-5.1-2.536-5.1-5.984,0-3.743,3.166-6.212,7.138-6.212,2.951,0,5.394,1.221,6.373,3.837l-3.206,2.241a3.335,3.335,0,0,0-3.1-1.811c-1.623,0-2.831.939-2.831,2.053,0,1.288,1.637,1.73,4.118,2.9,3.583,1.69,5.836,3.515,5.836,6.843,0,3.944-3.22,6.453-7.849,6.453C2793.156,261.213,2790.539,259.737,2789.09,257.054Z" transform="translate(-2676.82 -238.7)" fill="#fff"/>
      <path id="Path_8" data-name="Path 8" d="M3037.17,249.356h-5.313v17.32h-4.36v-17.32h-5.327V245.05h15v4.306Z" transform="translate(-2893.129 -244.593)" fill="#fff"/>
      <path id="Path_9" data-name="Path 9" d="M3264.58,245.05h4.347v21.627h-4.346V245.05Z" transform="translate(-3118.097 -244.593)" fill="#fff"/>
      <path id="Path_10" data-name="Path 10" d="M3394.607,239.808v22.084h-.2L3381.567,249.4v12.115h-4.347V239.46h.215l12.812,12.464V239.808Z" transform="translate(-3222.633 -239.405)" fill="#fff"/>
      <path id="Path_11" data-name="Path 11" d="M3679.738,250.662c0,6.789-4.683,10.747-10.317,10.747a11.25,11.25,0,1,1-.161-22.5,11.915,11.915,0,0,1,7.916,3.381l-2.415,3.609a8.11,8.11,0,0,0-5.554-2.59,6.866,6.866,0,1,0,.4,13.725c3.086,0,5.3-1.583,5.447-4.186h-5.594v-4.011h10.17A17.071,17.071,0,0,1,3679.738,250.662Z" transform="translate(-3483.238 -238.895)" fill="#fff"/>
    </g>
    <rect id="Rectangle_1" data-name="Rectangle 1" width="1.295" height="33.026" transform="translate(56.043)" fill="#fff" stroke="#fff" stroke-miterlimit="10" stroke-width="1"/>
    <g id="Group_2" data-name="Group 2" transform="translate(0 2.914)">
      <g id="Logo_3_2_" transform="translate(0 0)">
        <path id="Path_12" data-name="Path 12" d="M346.21,206l19.284,27.2,3.957-5.74L354.18,206Z" transform="translate(-346.21 -206)" fill="#fff"/>
      </g>
      <path id="Path_13" data-name="Path 13" d="M725.157,216.763l-4.027-5.658L724.807,206h7.775Z" transform="translate(-694.154 -206)" fill="#fff"/>
      <path id="Path_14" data-name="Path 14" d="M543.456,206l-19.228,27.2L505,206h7.942l11.286,15.855L535.263,206Z" transform="translate(-493.575 -206)" fill="#00b8ff"/>
    </g>
  </g>
</svg>
